<mxfile host="app.diagrams.net" modified="2021-03-08T10:49:52.392Z" agent="5.0 (Windows NT 10.0; Win64; x64) AppleWebKit/537.36 (KHTML, like Gecko) Chrome/86.0.4240.183 Safari/537.36" etag="FZkobZXghRXblA4QeyfP" version="14.0.1" type="github">
  <diagram id="wo4e80tORjcWLJwp-LSY" name="第 1 页">
    <mxGraphModel dx="1673" dy="908" grid="1" gridSize="10" guides="1" tooltips="1" connect="1" arrows="1" fold="1" page="1" pageScale="1" pageWidth="827" pageHeight="1169" background="#DAD2D8" math="0" shadow="0">
      <root>
        <mxCell id="0" />
        <mxCell id="1" parent="0" />
        <mxCell id="ozpXTlb8TzuB-5DNZtOr-107" value="" style="rounded=0;whiteSpace=wrap;html=1;shadow=0;glass=0;sketch=1;strokeColor=#0F8B8D;fillColor=#FAE5C7;fontColor=#143642;" vertex="1" parent="1">
          <mxGeometry x="577" y="1170" width="200" height="150" as="geometry" />
        </mxCell>
        <mxCell id="ozpXTlb8TzuB-5DNZtOr-72" value="" style="rounded=0;whiteSpace=wrap;html=1;shadow=0;glass=0;sketch=1;strokeColor=#0F8B8D;fillColor=#FAE5C7;fontColor=#143642;" vertex="1" parent="1">
          <mxGeometry x="278" y="750" width="316" height="150" as="geometry" />
        </mxCell>
        <mxCell id="ozpXTlb8TzuB-5DNZtOr-68" value="&lt;div style=&quot;text-align: justify&quot;&gt;&lt;/div&gt;" style="rounded=0;whiteSpace=wrap;html=1;shadow=0;sketch=1;strokeColor=#0F8B8D;fillColor=#FAE5C7;fontColor=#143642;glass=0;" vertex="1" parent="1">
          <mxGeometry x="58" y="750" width="187.5" height="140" as="geometry" />
        </mxCell>
        <mxCell id="ozpXTlb8TzuB-5DNZtOr-1" value="id字段" style="ellipse;whiteSpace=wrap;html=1;rounded=0;sketch=1;shadow=0;fillColor=#f5f5f5;strokeColor=#666666;fontColor=#333333;" vertex="1" parent="1">
          <mxGeometry x="250" y="190" width="90" height="60" as="geometry" />
        </mxCell>
        <mxCell id="ozpXTlb8TzuB-5DNZtOr-7" style="edgeStyle=orthogonalEdgeStyle;curved=1;rounded=1;sketch=0;orthogonalLoop=1;jettySize=auto;html=1;strokeColor=#A8201A;fillColor=#FAE5C7;fontColor=#143642;entryX=1;entryY=0;entryDx=0;entryDy=0;" edge="1" parent="1" source="ozpXTlb8TzuB-5DNZtOr-2" target="ozpXTlb8TzuB-5DNZtOr-12">
          <mxGeometry relative="1" as="geometry">
            <mxPoint x="205" y="360" as="targetPoint" />
          </mxGeometry>
        </mxCell>
        <mxCell id="ozpXTlb8TzuB-5DNZtOr-2" value="3" style="rounded=1;whiteSpace=wrap;html=1;shadow=0;sketch=1;strokeColor=#0F8B8D;fillColor=#FAE5C7;fontColor=#143642;" vertex="1" parent="1">
          <mxGeometry x="160" y="280" width="90" height="40" as="geometry" />
        </mxCell>
        <mxCell id="ozpXTlb8TzuB-5DNZtOr-8" style="edgeStyle=orthogonalEdgeStyle;curved=1;rounded=1;sketch=0;orthogonalLoop=1;jettySize=auto;html=1;strokeColor=#A8201A;fillColor=#FAE5C7;fontColor=#143642;entryX=0;entryY=0;entryDx=0;entryDy=0;" edge="1" parent="1" source="ozpXTlb8TzuB-5DNZtOr-3" target="ozpXTlb8TzuB-5DNZtOr-16">
          <mxGeometry relative="1" as="geometry">
            <mxPoint x="380" y="380" as="targetPoint" />
            <Array as="points">
              <mxPoint x="300" y="350" />
              <mxPoint x="310" y="350" />
            </Array>
          </mxGeometry>
        </mxCell>
        <mxCell id="ozpXTlb8TzuB-5DNZtOr-3" value="9" style="rounded=1;whiteSpace=wrap;html=1;shadow=0;sketch=1;strokeColor=#0F8B8D;fillColor=#FAE5C7;fontColor=#143642;" vertex="1" parent="1">
          <mxGeometry x="250" y="280" width="100" height="40" as="geometry" />
        </mxCell>
        <mxCell id="ozpXTlb8TzuB-5DNZtOr-4" value="" style="rounded=1;whiteSpace=wrap;html=1;shadow=0;sketch=1;strokeColor=#0F8B8D;fillColor=#FAE5C7;fontColor=#143642;" vertex="1" parent="1">
          <mxGeometry x="350" y="280" width="100" height="40" as="geometry" />
        </mxCell>
        <mxCell id="ozpXTlb8TzuB-5DNZtOr-6" value="" style="rounded=1;whiteSpace=wrap;html=1;shadow=0;sketch=1;strokeColor=#0F8B8D;fillColor=#FAE5C7;fontColor=#143642;" vertex="1" parent="1">
          <mxGeometry x="450" y="280" width="100" height="40" as="geometry" />
        </mxCell>
        <mxCell id="ozpXTlb8TzuB-5DNZtOr-31" value="" style="edgeStyle=orthogonalEdgeStyle;curved=1;rounded=1;sketch=0;orthogonalLoop=1;jettySize=auto;html=1;strokeColor=#A8201A;fillColor=#FAE5C7;fontColor=#143642;" edge="1" parent="1" source="ozpXTlb8TzuB-5DNZtOr-11" target="ozpXTlb8TzuB-5DNZtOr-22">
          <mxGeometry relative="1" as="geometry" />
        </mxCell>
        <mxCell id="ozpXTlb8TzuB-5DNZtOr-11" value="2" style="rounded=1;whiteSpace=wrap;html=1;shadow=0;sketch=1;strokeColor=#0F8B8D;fillColor=#FAE5C7;fontColor=#143642;" vertex="1" parent="1">
          <mxGeometry x="160" y="380" width="70" height="30" as="geometry" />
        </mxCell>
        <mxCell id="ozpXTlb8TzuB-5DNZtOr-30" value="" style="edgeStyle=orthogonalEdgeStyle;curved=1;rounded=1;sketch=0;orthogonalLoop=1;jettySize=auto;html=1;strokeColor=#A8201A;fillColor=#FAE5C7;fontColor=#143642;entryX=0.5;entryY=0;entryDx=0;entryDy=0;" edge="1" parent="1" source="ozpXTlb8TzuB-5DNZtOr-12" target="ozpXTlb8TzuB-5DNZtOr-19">
          <mxGeometry relative="1" as="geometry" />
        </mxCell>
        <mxCell id="ozpXTlb8TzuB-5DNZtOr-12" value="1" style="rounded=1;whiteSpace=wrap;html=1;shadow=0;sketch=1;strokeColor=#0F8B8D;fillColor=#FAE5C7;fontColor=#143642;" vertex="1" parent="1">
          <mxGeometry x="90" y="380" width="70" height="30" as="geometry" />
        </mxCell>
        <mxCell id="ozpXTlb8TzuB-5DNZtOr-33" value="" style="edgeStyle=orthogonalEdgeStyle;curved=1;rounded=1;sketch=0;orthogonalLoop=1;jettySize=auto;html=1;strokeColor=#A8201A;fillColor=#FAE5C7;fontColor=#143642;entryX=0.5;entryY=0;entryDx=0;entryDy=0;" edge="1" parent="1" source="ozpXTlb8TzuB-5DNZtOr-15" target="ozpXTlb8TzuB-5DNZtOr-24">
          <mxGeometry relative="1" as="geometry" />
        </mxCell>
        <mxCell id="ozpXTlb8TzuB-5DNZtOr-15" value="4" style="rounded=1;whiteSpace=wrap;html=1;shadow=0;sketch=1;strokeColor=#0F8B8D;fillColor=#FAE5C7;fontColor=#143642;" vertex="1" parent="1">
          <mxGeometry x="240" y="380" width="70" height="30" as="geometry" />
        </mxCell>
        <mxCell id="ozpXTlb8TzuB-5DNZtOr-35" value="" style="edgeStyle=orthogonalEdgeStyle;curved=1;rounded=1;sketch=0;orthogonalLoop=1;jettySize=auto;html=1;strokeColor=#A8201A;fillColor=#FAE5C7;fontColor=#143642;entryX=0.5;entryY=0;entryDx=0;entryDy=0;" edge="1" parent="1" source="ozpXTlb8TzuB-5DNZtOr-16" target="ozpXTlb8TzuB-5DNZtOr-26">
          <mxGeometry relative="1" as="geometry" />
        </mxCell>
        <mxCell id="ozpXTlb8TzuB-5DNZtOr-16" value="6" style="rounded=1;whiteSpace=wrap;html=1;shadow=0;sketch=1;strokeColor=#0F8B8D;fillColor=#FAE5C7;fontColor=#143642;" vertex="1" parent="1">
          <mxGeometry x="310" y="380" width="70" height="30" as="geometry" />
        </mxCell>
        <mxCell id="ozpXTlb8TzuB-5DNZtOr-18" style="edgeStyle=orthogonalEdgeStyle;curved=1;rounded=1;sketch=0;orthogonalLoop=1;jettySize=auto;html=1;exitX=0.5;exitY=1;exitDx=0;exitDy=0;strokeColor=#A8201A;fillColor=#FAE5C7;fontColor=#143642;" edge="1" parent="1" source="ozpXTlb8TzuB-5DNZtOr-12" target="ozpXTlb8TzuB-5DNZtOr-12">
          <mxGeometry relative="1" as="geometry" />
        </mxCell>
        <mxCell id="ozpXTlb8TzuB-5DNZtOr-19" value="row1" style="rounded=1;whiteSpace=wrap;html=1;shadow=0;sketch=1;strokeColor=#0F8B8D;fillColor=#FAE5C7;fontColor=#143642;" vertex="1" parent="1">
          <mxGeometry x="90" y="430" width="70" height="30" as="geometry" />
        </mxCell>
        <mxCell id="ozpXTlb8TzuB-5DNZtOr-22" value="row2" style="rounded=1;whiteSpace=wrap;html=1;shadow=0;sketch=1;strokeColor=#0F8B8D;fillColor=#FAE5C7;fontColor=#143642;" vertex="1" parent="1">
          <mxGeometry x="160" y="430" width="70" height="30" as="geometry" />
        </mxCell>
        <mxCell id="ozpXTlb8TzuB-5DNZtOr-24" value="row3" style="rounded=1;whiteSpace=wrap;html=1;shadow=0;sketch=1;strokeColor=#0F8B8D;fillColor=#FAE5C7;fontColor=#143642;" vertex="1" parent="1">
          <mxGeometry x="240" y="430" width="70" height="30" as="geometry" />
        </mxCell>
        <mxCell id="ozpXTlb8TzuB-5DNZtOr-26" value="row5" style="rounded=1;whiteSpace=wrap;html=1;shadow=0;sketch=1;strokeColor=#0F8B8D;fillColor=#FAE5C7;fontColor=#143642;" vertex="1" parent="1">
          <mxGeometry x="311" y="430" width="70" height="30" as="geometry" />
        </mxCell>
        <mxCell id="ozpXTlb8TzuB-5DNZtOr-40" value="" style="edgeStyle=orthogonalEdgeStyle;curved=1;rounded=1;sketch=0;orthogonalLoop=1;jettySize=auto;html=1;strokeColor=#A8201A;fillColor=#FAE5C7;fontColor=#143642;" edge="1" parent="1" source="ozpXTlb8TzuB-5DNZtOr-38" target="ozpXTlb8TzuB-5DNZtOr-39">
          <mxGeometry relative="1" as="geometry" />
        </mxCell>
        <mxCell id="ozpXTlb8TzuB-5DNZtOr-38" value="8" style="rounded=1;whiteSpace=wrap;html=1;shadow=0;sketch=1;strokeColor=#0F8B8D;fillColor=#FAE5C7;fontColor=#143642;" vertex="1" parent="1">
          <mxGeometry x="381" y="380" width="69" height="30" as="geometry" />
        </mxCell>
        <mxCell id="ozpXTlb8TzuB-5DNZtOr-39" value="row6" style="rounded=1;whiteSpace=wrap;html=1;shadow=0;sketch=1;strokeColor=#0F8B8D;fillColor=#FAE5C7;fontColor=#143642;" vertex="1" parent="1">
          <mxGeometry x="379" y="430" width="70" height="30" as="geometry" />
        </mxCell>
        <mxCell id="ozpXTlb8TzuB-5DNZtOr-41" value="9" style="rounded=1;whiteSpace=wrap;html=1;shadow=0;sketch=1;strokeColor=#0F8B8D;fillColor=#FAE5C7;fontColor=#143642;" vertex="1" parent="1">
          <mxGeometry x="449" y="380" width="69" height="30" as="geometry" />
        </mxCell>
        <mxCell id="ozpXTlb8TzuB-5DNZtOr-42" value="row7" style="rounded=1;whiteSpace=wrap;html=1;shadow=0;sketch=1;strokeColor=#0F8B8D;fillColor=#FAE5C7;fontColor=#143642;" vertex="1" parent="1">
          <mxGeometry x="449" y="430" width="69" height="30" as="geometry" />
        </mxCell>
        <mxCell id="ozpXTlb8TzuB-5DNZtOr-43" value="&lt;b&gt;id字段&lt;/b&gt;" style="ellipse;whiteSpace=wrap;html=1;rounded=0;sketch=1;shadow=0;fillColor=#f5f5f5;strokeColor=#666666;fontColor=#333333;" vertex="1" parent="1">
          <mxGeometry x="268" y="520" width="90" height="60" as="geometry" />
        </mxCell>
        <mxCell id="ozpXTlb8TzuB-5DNZtOr-44" style="edgeStyle=orthogonalEdgeStyle;curved=1;rounded=1;sketch=0;orthogonalLoop=1;jettySize=auto;html=1;strokeColor=#A8201A;fillColor=#FAE5C7;fontColor=#143642;entryX=1;entryY=0;entryDx=0;entryDy=0;" edge="1" parent="1" source="ozpXTlb8TzuB-5DNZtOr-45" target="ozpXTlb8TzuB-5DNZtOr-53">
          <mxGeometry relative="1" as="geometry">
            <mxPoint x="223" y="690" as="targetPoint" />
            <Array as="points">
              <mxPoint x="223" y="660" />
              <mxPoint x="148" y="660" />
            </Array>
          </mxGeometry>
        </mxCell>
        <mxCell id="ozpXTlb8TzuB-5DNZtOr-45" value="&lt;b&gt;3&lt;/b&gt;" style="rounded=1;whiteSpace=wrap;html=1;shadow=0;sketch=1;strokeColor=#0F8B8D;fillColor=#FAE5C7;fontColor=#143642;" vertex="1" parent="1">
          <mxGeometry x="178" y="610" width="90" height="40" as="geometry" />
        </mxCell>
        <mxCell id="ozpXTlb8TzuB-5DNZtOr-46" style="edgeStyle=orthogonalEdgeStyle;curved=1;rounded=1;sketch=0;orthogonalLoop=1;jettySize=auto;html=1;strokeColor=#A8201A;fillColor=#FAE5C7;fontColor=#143642;entryX=0;entryY=0;entryDx=0;entryDy=0;" edge="1" parent="1" source="ozpXTlb8TzuB-5DNZtOr-47" target="ozpXTlb8TzuB-5DNZtOr-57">
          <mxGeometry relative="1" as="geometry">
            <mxPoint x="398" y="710" as="targetPoint" />
            <Array as="points">
              <mxPoint x="318" y="680" />
              <mxPoint x="328" y="680" />
              <mxPoint x="328" y="780" />
            </Array>
          </mxGeometry>
        </mxCell>
        <mxCell id="ozpXTlb8TzuB-5DNZtOr-47" value="&lt;b&gt;9&lt;/b&gt;" style="rounded=1;whiteSpace=wrap;html=1;shadow=0;sketch=1;strokeColor=#0F8B8D;fillColor=#FAE5C7;fontColor=#143642;" vertex="1" parent="1">
          <mxGeometry x="268" y="610" width="100" height="40" as="geometry" />
        </mxCell>
        <mxCell id="ozpXTlb8TzuB-5DNZtOr-48" value="" style="rounded=1;whiteSpace=wrap;html=1;shadow=0;sketch=1;strokeColor=#0F8B8D;fillColor=#FAE5C7;fontColor=#143642;" vertex="1" parent="1">
          <mxGeometry x="368" y="610" width="100" height="40" as="geometry" />
        </mxCell>
        <mxCell id="ozpXTlb8TzuB-5DNZtOr-49" value="" style="rounded=1;whiteSpace=wrap;html=1;shadow=0;sketch=1;strokeColor=#0F8B8D;fillColor=#FAE5C7;fontColor=#143642;" vertex="1" parent="1">
          <mxGeometry x="468" y="610" width="100" height="40" as="geometry" />
        </mxCell>
        <mxCell id="ozpXTlb8TzuB-5DNZtOr-50" value="" style="edgeStyle=orthogonalEdgeStyle;curved=1;rounded=1;sketch=0;orthogonalLoop=1;jettySize=auto;html=1;strokeColor=#A8201A;fillColor=#FAE5C7;fontColor=#143642;" edge="1" parent="1" source="ozpXTlb8TzuB-5DNZtOr-51" target="ozpXTlb8TzuB-5DNZtOr-60">
          <mxGeometry relative="1" as="geometry" />
        </mxCell>
        <mxCell id="ozpXTlb8TzuB-5DNZtOr-51" value="2" style="rounded=1;whiteSpace=wrap;html=1;shadow=0;sketch=1;strokeColor=#0F8B8D;fillColor=#FAE5C7;fontColor=#143642;" vertex="1" parent="1">
          <mxGeometry x="148" y="770" width="70" height="30" as="geometry" />
        </mxCell>
        <mxCell id="ozpXTlb8TzuB-5DNZtOr-52" value="" style="edgeStyle=orthogonalEdgeStyle;curved=1;rounded=1;sketch=0;orthogonalLoop=1;jettySize=auto;html=1;strokeColor=#A8201A;fillColor=#FAE5C7;fontColor=#143642;entryX=0.5;entryY=0;entryDx=0;entryDy=0;" edge="1" parent="1" source="ozpXTlb8TzuB-5DNZtOr-53" target="ozpXTlb8TzuB-5DNZtOr-59">
          <mxGeometry relative="1" as="geometry" />
        </mxCell>
        <mxCell id="ozpXTlb8TzuB-5DNZtOr-53" value="&lt;b&gt;1&lt;/b&gt;" style="rounded=1;whiteSpace=wrap;html=1;shadow=0;sketch=1;strokeColor=#0F8B8D;fillColor=#FAE5C7;fontColor=#143642;" vertex="1" parent="1">
          <mxGeometry x="78" y="770" width="70" height="30" as="geometry" />
        </mxCell>
        <mxCell id="ozpXTlb8TzuB-5DNZtOr-54" value="" style="edgeStyle=orthogonalEdgeStyle;curved=1;rounded=1;sketch=0;orthogonalLoop=1;jettySize=auto;html=1;strokeColor=#A8201A;fillColor=#FAE5C7;fontColor=#143642;entryX=0.5;entryY=0;entryDx=0;entryDy=0;" edge="1" parent="1" source="ozpXTlb8TzuB-5DNZtOr-55" target="ozpXTlb8TzuB-5DNZtOr-61">
          <mxGeometry relative="1" as="geometry" />
        </mxCell>
        <mxCell id="ozpXTlb8TzuB-5DNZtOr-55" value="&lt;b&gt;4&lt;/b&gt;" style="rounded=1;whiteSpace=wrap;html=1;shadow=0;sketch=1;strokeColor=#0F8B8D;fillColor=#FAE5C7;fontColor=#143642;" vertex="1" parent="1">
          <mxGeometry x="294" y="780" width="70" height="30" as="geometry" />
        </mxCell>
        <mxCell id="ozpXTlb8TzuB-5DNZtOr-56" value="" style="edgeStyle=orthogonalEdgeStyle;curved=1;rounded=1;sketch=0;orthogonalLoop=1;jettySize=auto;html=1;strokeColor=#A8201A;fillColor=#FAE5C7;fontColor=#143642;entryX=0.5;entryY=0;entryDx=0;entryDy=0;" edge="1" parent="1" source="ozpXTlb8TzuB-5DNZtOr-57" target="ozpXTlb8TzuB-5DNZtOr-62">
          <mxGeometry relative="1" as="geometry" />
        </mxCell>
        <mxCell id="ozpXTlb8TzuB-5DNZtOr-57" value="&lt;b&gt;6&lt;/b&gt;" style="rounded=1;whiteSpace=wrap;html=1;shadow=0;sketch=1;strokeColor=#0F8B8D;fillColor=#FAE5C7;fontColor=#143642;" vertex="1" parent="1">
          <mxGeometry x="364" y="780" width="70" height="30" as="geometry" />
        </mxCell>
        <mxCell id="ozpXTlb8TzuB-5DNZtOr-58" style="edgeStyle=orthogonalEdgeStyle;curved=1;rounded=1;sketch=0;orthogonalLoop=1;jettySize=auto;html=1;exitX=0.5;exitY=1;exitDx=0;exitDy=0;strokeColor=#A8201A;fillColor=#FAE5C7;fontColor=#143642;" edge="1" parent="1" source="ozpXTlb8TzuB-5DNZtOr-53" target="ozpXTlb8TzuB-5DNZtOr-53">
          <mxGeometry relative="1" as="geometry" />
        </mxCell>
        <mxCell id="ozpXTlb8TzuB-5DNZtOr-59" value="&lt;b&gt;row1&lt;/b&gt;" style="rounded=1;whiteSpace=wrap;html=1;shadow=0;sketch=1;strokeColor=#0F8B8D;fillColor=#FAE5C7;fontColor=#143642;" vertex="1" parent="1">
          <mxGeometry x="78" y="820" width="70" height="30" as="geometry" />
        </mxCell>
        <mxCell id="ozpXTlb8TzuB-5DNZtOr-60" value="&lt;b&gt;row2&lt;/b&gt;" style="rounded=1;whiteSpace=wrap;html=1;shadow=0;sketch=1;strokeColor=#0F8B8D;fillColor=#FAE5C7;fontColor=#143642;" vertex="1" parent="1">
          <mxGeometry x="148" y="820" width="70" height="30" as="geometry" />
        </mxCell>
        <mxCell id="ozpXTlb8TzuB-5DNZtOr-61" value="&lt;b&gt;row3&lt;/b&gt;" style="rounded=1;whiteSpace=wrap;html=1;shadow=0;sketch=1;strokeColor=#0F8B8D;fillColor=#FAE5C7;fontColor=#143642;" vertex="1" parent="1">
          <mxGeometry x="294" y="830" width="70" height="30" as="geometry" />
        </mxCell>
        <mxCell id="ozpXTlb8TzuB-5DNZtOr-62" value="&lt;b&gt;row5&lt;/b&gt;" style="rounded=1;whiteSpace=wrap;html=1;shadow=0;sketch=1;strokeColor=#0F8B8D;fillColor=#FAE5C7;fontColor=#143642;" vertex="1" parent="1">
          <mxGeometry x="365" y="830" width="70" height="30" as="geometry" />
        </mxCell>
        <mxCell id="ozpXTlb8TzuB-5DNZtOr-63" value="" style="edgeStyle=orthogonalEdgeStyle;curved=1;rounded=1;sketch=0;orthogonalLoop=1;jettySize=auto;html=1;strokeColor=#A8201A;fillColor=#FAE5C7;fontColor=#143642;" edge="1" parent="1" source="ozpXTlb8TzuB-5DNZtOr-64" target="ozpXTlb8TzuB-5DNZtOr-65">
          <mxGeometry relative="1" as="geometry" />
        </mxCell>
        <mxCell id="ozpXTlb8TzuB-5DNZtOr-64" value="&lt;b&gt;8&lt;/b&gt;" style="rounded=1;whiteSpace=wrap;html=1;shadow=0;sketch=1;strokeColor=#0F8B8D;fillColor=#FAE5C7;fontColor=#143642;" vertex="1" parent="1">
          <mxGeometry x="435" y="780" width="69" height="30" as="geometry" />
        </mxCell>
        <mxCell id="ozpXTlb8TzuB-5DNZtOr-65" value="&lt;b&gt;row6&lt;/b&gt;" style="rounded=1;whiteSpace=wrap;html=1;shadow=0;sketch=1;strokeColor=#0F8B8D;fillColor=#FAE5C7;fontColor=#143642;" vertex="1" parent="1">
          <mxGeometry x="433" y="830" width="70" height="30" as="geometry" />
        </mxCell>
        <mxCell id="ozpXTlb8TzuB-5DNZtOr-75" style="edgeStyle=orthogonalEdgeStyle;curved=1;rounded=1;sketch=0;orthogonalLoop=1;jettySize=auto;html=1;strokeColor=#A8201A;fillColor=#FAE5C7;fontColor=#143642;" edge="1" parent="1" source="ozpXTlb8TzuB-5DNZtOr-66" target="ozpXTlb8TzuB-5DNZtOr-67">
          <mxGeometry relative="1" as="geometry" />
        </mxCell>
        <mxCell id="ozpXTlb8TzuB-5DNZtOr-66" value="&lt;b&gt;9&lt;/b&gt;" style="rounded=1;whiteSpace=wrap;html=1;shadow=0;sketch=1;strokeColor=#0F8B8D;fillColor=#FAE5C7;fontColor=#143642;" vertex="1" parent="1">
          <mxGeometry x="503" y="780" width="69" height="30" as="geometry" />
        </mxCell>
        <mxCell id="ozpXTlb8TzuB-5DNZtOr-67" value="&lt;b&gt;row7&lt;/b&gt;" style="rounded=1;whiteSpace=wrap;html=1;shadow=0;sketch=1;strokeColor=#0F8B8D;fillColor=#FAE5C7;fontColor=#143642;" vertex="1" parent="1">
          <mxGeometry x="503" y="830" width="69" height="30" as="geometry" />
        </mxCell>
        <mxCell id="ozpXTlb8TzuB-5DNZtOr-71" value="&lt;font style=&quot;font-size: 14px&quot;&gt;&lt;b&gt;page1&lt;/b&gt;&lt;/font&gt;" style="text;html=1;strokeColor=none;fillColor=none;align=center;verticalAlign=middle;whiteSpace=wrap;rounded=0;shadow=0;glass=0;sketch=1;fontColor=#143642;" vertex="1" parent="1">
          <mxGeometry x="128" y="870" width="40" height="20" as="geometry" />
        </mxCell>
        <mxCell id="ozpXTlb8TzuB-5DNZtOr-73" value="&lt;b&gt;&lt;font style=&quot;font-size: 14px&quot;&gt;page2&lt;/font&gt;&lt;/b&gt;" style="text;html=1;strokeColor=none;fillColor=none;align=center;verticalAlign=middle;whiteSpace=wrap;rounded=0;shadow=0;glass=0;sketch=1;fontColor=#143642;" vertex="1" parent="1">
          <mxGeometry x="414" y="880" width="40" height="20" as="geometry" />
        </mxCell>
        <mxCell id="ozpXTlb8TzuB-5DNZtOr-109" style="edgeStyle=orthogonalEdgeStyle;curved=1;rounded=1;sketch=0;orthogonalLoop=1;jettySize=auto;html=1;strokeColor=#A8201A;fillColor=#FAE5C7;fontColor=#143642;" edge="1" parent="1" source="ozpXTlb8TzuB-5DNZtOr-76" target="ozpXTlb8TzuB-5DNZtOr-107">
          <mxGeometry relative="1" as="geometry" />
        </mxCell>
        <mxCell id="ozpXTlb8TzuB-5DNZtOr-76" value="" style="rounded=0;whiteSpace=wrap;html=1;shadow=0;glass=0;sketch=1;strokeColor=#0F8B8D;fillColor=#FAE5C7;fontColor=#143642;" vertex="1" parent="1">
          <mxGeometry x="256" y="1170" width="301" height="150" as="geometry" />
        </mxCell>
        <mxCell id="ozpXTlb8TzuB-5DNZtOr-112" value="" style="rounded=1;sketch=0;orthogonalLoop=1;jettySize=auto;html=1;strokeColor=#A8201A;fillColor=#FAE5C7;fontColor=#143642;entryX=0;entryY=0;entryDx=0;entryDy=0;" edge="1" parent="1" source="ozpXTlb8TzuB-5DNZtOr-77" target="ozpXTlb8TzuB-5DNZtOr-96">
          <mxGeometry relative="1" as="geometry" />
        </mxCell>
        <mxCell id="ozpXTlb8TzuB-5DNZtOr-77" value="&lt;div style=&quot;text-align: justify&quot;&gt;&lt;/div&gt;" style="rounded=0;whiteSpace=wrap;html=1;shadow=0;sketch=1;strokeColor=#0F8B8D;fillColor=#FAE5C7;fontColor=#143642;glass=0;" vertex="1" parent="1">
          <mxGeometry x="54" y="1170" width="173" height="150" as="geometry" />
        </mxCell>
        <mxCell id="ozpXTlb8TzuB-5DNZtOr-78" value="&lt;b&gt;id字段&lt;/b&gt;" style="ellipse;whiteSpace=wrap;html=1;rounded=0;sketch=1;shadow=0;fillColor=#f5f5f5;strokeColor=#666666;fontColor=#333333;" vertex="1" parent="1">
          <mxGeometry x="264" y="940" width="90" height="60" as="geometry" />
        </mxCell>
        <mxCell id="ozpXTlb8TzuB-5DNZtOr-79" style="edgeStyle=orthogonalEdgeStyle;curved=1;rounded=1;sketch=0;orthogonalLoop=1;jettySize=auto;html=1;strokeColor=#A8201A;fillColor=#FAE5C7;fontColor=#143642;entryX=1;entryY=0;entryDx=0;entryDy=0;" edge="1" parent="1" source="ozpXTlb8TzuB-5DNZtOr-80" target="ozpXTlb8TzuB-5DNZtOr-88">
          <mxGeometry relative="1" as="geometry">
            <mxPoint x="219" y="1110" as="targetPoint" />
            <Array as="points">
              <mxPoint x="219" y="1080" />
              <mxPoint x="144" y="1080" />
            </Array>
          </mxGeometry>
        </mxCell>
        <mxCell id="ozpXTlb8TzuB-5DNZtOr-80" value="&lt;b&gt;3&lt;/b&gt;" style="rounded=1;whiteSpace=wrap;html=1;shadow=0;sketch=1;strokeColor=#0F8B8D;fillColor=#FAE5C7;fontColor=#143642;" vertex="1" parent="1">
          <mxGeometry x="174" y="1030" width="90" height="40" as="geometry" />
        </mxCell>
        <mxCell id="ozpXTlb8TzuB-5DNZtOr-81" style="edgeStyle=orthogonalEdgeStyle;curved=1;rounded=1;sketch=0;orthogonalLoop=1;jettySize=auto;html=1;strokeColor=#A8201A;fillColor=#FAE5C7;fontColor=#143642;" edge="1" parent="1" source="ozpXTlb8TzuB-5DNZtOr-82" target="ozpXTlb8TzuB-5DNZtOr-76">
          <mxGeometry relative="1" as="geometry">
            <mxPoint x="394" y="1130" as="targetPoint" />
            <Array as="points">
              <mxPoint x="314" y="1100" />
              <mxPoint x="397" y="1100" />
            </Array>
          </mxGeometry>
        </mxCell>
        <mxCell id="ozpXTlb8TzuB-5DNZtOr-82" value="&lt;b&gt;7&lt;/b&gt;" style="rounded=1;whiteSpace=wrap;html=1;shadow=0;sketch=1;strokeColor=#0F8B8D;fillColor=#FAE5C7;fontColor=#143642;" vertex="1" parent="1">
          <mxGeometry x="264" y="1030" width="100" height="40" as="geometry" />
        </mxCell>
        <mxCell id="ozpXTlb8TzuB-5DNZtOr-108" value="" style="edgeStyle=orthogonalEdgeStyle;curved=1;rounded=1;sketch=0;orthogonalLoop=1;jettySize=auto;html=1;strokeColor=#A8201A;fillColor=#FAE5C7;fontColor=#143642;entryX=0.45;entryY=-0.02;entryDx=0;entryDy=0;entryPerimeter=0;exitX=0.5;exitY=1;exitDx=0;exitDy=0;" edge="1" parent="1" source="ozpXTlb8TzuB-5DNZtOr-83" target="ozpXTlb8TzuB-5DNZtOr-107">
          <mxGeometry relative="1" as="geometry" />
        </mxCell>
        <mxCell id="ozpXTlb8TzuB-5DNZtOr-83" value="9" style="rounded=1;whiteSpace=wrap;html=1;shadow=0;sketch=1;strokeColor=#0F8B8D;fillColor=#FAE5C7;fontColor=#143642;" vertex="1" parent="1">
          <mxGeometry x="364" y="1030" width="100" height="40" as="geometry" />
        </mxCell>
        <mxCell id="ozpXTlb8TzuB-5DNZtOr-84" value="" style="rounded=1;whiteSpace=wrap;html=1;shadow=0;sketch=1;strokeColor=#0F8B8D;fillColor=#FAE5C7;fontColor=#143642;" vertex="1" parent="1">
          <mxGeometry x="467" y="1030" width="97" height="40" as="geometry" />
        </mxCell>
        <mxCell id="ozpXTlb8TzuB-5DNZtOr-85" value="" style="edgeStyle=orthogonalEdgeStyle;curved=1;rounded=1;sketch=0;orthogonalLoop=1;jettySize=auto;html=1;strokeColor=#A8201A;fillColor=#FAE5C7;fontColor=#143642;" edge="1" parent="1" source="ozpXTlb8TzuB-5DNZtOr-86" target="ozpXTlb8TzuB-5DNZtOr-95">
          <mxGeometry relative="1" as="geometry" />
        </mxCell>
        <mxCell id="ozpXTlb8TzuB-5DNZtOr-86" value="2" style="rounded=1;whiteSpace=wrap;html=1;shadow=0;sketch=1;strokeColor=#0F8B8D;fillColor=#FAE5C7;fontColor=#143642;" vertex="1" parent="1">
          <mxGeometry x="144" y="1190" width="70" height="30" as="geometry" />
        </mxCell>
        <mxCell id="ozpXTlb8TzuB-5DNZtOr-87" value="" style="edgeStyle=orthogonalEdgeStyle;curved=1;rounded=1;sketch=0;orthogonalLoop=1;jettySize=auto;html=1;strokeColor=#A8201A;fillColor=#FAE5C7;fontColor=#143642;entryX=0.5;entryY=0;entryDx=0;entryDy=0;" edge="1" parent="1" source="ozpXTlb8TzuB-5DNZtOr-88" target="ozpXTlb8TzuB-5DNZtOr-94">
          <mxGeometry relative="1" as="geometry" />
        </mxCell>
        <mxCell id="ozpXTlb8TzuB-5DNZtOr-88" value="&lt;b&gt;1&lt;/b&gt;" style="rounded=1;whiteSpace=wrap;html=1;shadow=0;sketch=1;strokeColor=#0F8B8D;fillColor=#FAE5C7;fontColor=#143642;" vertex="1" parent="1">
          <mxGeometry x="74" y="1190" width="70" height="30" as="geometry" />
        </mxCell>
        <mxCell id="ozpXTlb8TzuB-5DNZtOr-89" value="" style="edgeStyle=orthogonalEdgeStyle;curved=1;rounded=1;sketch=0;orthogonalLoop=1;jettySize=auto;html=1;strokeColor=#A8201A;fillColor=#FAE5C7;fontColor=#143642;entryX=0.5;entryY=0;entryDx=0;entryDy=0;" edge="1" parent="1" source="ozpXTlb8TzuB-5DNZtOr-90" target="ozpXTlb8TzuB-5DNZtOr-96">
          <mxGeometry relative="1" as="geometry" />
        </mxCell>
        <mxCell id="ozpXTlb8TzuB-5DNZtOr-90" value="&lt;b&gt;4&lt;/b&gt;" style="rounded=1;whiteSpace=wrap;html=1;shadow=0;sketch=1;strokeColor=#0F8B8D;fillColor=#FAE5C7;fontColor=#143642;" vertex="1" parent="1">
          <mxGeometry x="254.5" y="1190" width="70" height="30" as="geometry" />
        </mxCell>
        <mxCell id="ozpXTlb8TzuB-5DNZtOr-91" value="" style="edgeStyle=orthogonalEdgeStyle;curved=1;rounded=1;sketch=0;orthogonalLoop=1;jettySize=auto;html=1;strokeColor=#A8201A;fillColor=#FAE5C7;fontColor=#143642;entryX=0.5;entryY=0;entryDx=0;entryDy=0;" edge="1" parent="1" source="ozpXTlb8TzuB-5DNZtOr-92" target="ozpXTlb8TzuB-5DNZtOr-97">
          <mxGeometry relative="1" as="geometry" />
        </mxCell>
        <mxCell id="ozpXTlb8TzuB-5DNZtOr-92" value="&lt;b&gt;6&lt;/b&gt;" style="rounded=1;whiteSpace=wrap;html=1;shadow=0;sketch=1;strokeColor=#0F8B8D;fillColor=#FAE5C7;fontColor=#143642;" vertex="1" parent="1">
          <mxGeometry x="327" y="1190" width="70" height="30" as="geometry" />
        </mxCell>
        <mxCell id="ozpXTlb8TzuB-5DNZtOr-93" style="edgeStyle=orthogonalEdgeStyle;curved=1;rounded=1;sketch=0;orthogonalLoop=1;jettySize=auto;html=1;exitX=0.5;exitY=1;exitDx=0;exitDy=0;strokeColor=#A8201A;fillColor=#FAE5C7;fontColor=#143642;" edge="1" parent="1" source="ozpXTlb8TzuB-5DNZtOr-88" target="ozpXTlb8TzuB-5DNZtOr-88">
          <mxGeometry relative="1" as="geometry" />
        </mxCell>
        <mxCell id="ozpXTlb8TzuB-5DNZtOr-94" value="&lt;b&gt;row1&lt;/b&gt;" style="rounded=1;whiteSpace=wrap;html=1;shadow=0;sketch=1;strokeColor=#0F8B8D;fillColor=#FAE5C7;fontColor=#143642;" vertex="1" parent="1">
          <mxGeometry x="74" y="1240" width="70" height="30" as="geometry" />
        </mxCell>
        <mxCell id="ozpXTlb8TzuB-5DNZtOr-95" value="&lt;b&gt;row2&lt;/b&gt;" style="rounded=1;whiteSpace=wrap;html=1;shadow=0;sketch=1;strokeColor=#0F8B8D;fillColor=#FAE5C7;fontColor=#143642;" vertex="1" parent="1">
          <mxGeometry x="144" y="1240" width="70" height="30" as="geometry" />
        </mxCell>
        <mxCell id="ozpXTlb8TzuB-5DNZtOr-96" value="&lt;b&gt;row3&lt;/b&gt;" style="rounded=1;whiteSpace=wrap;html=1;shadow=0;sketch=1;strokeColor=#0F8B8D;fillColor=#FAE5C7;fontColor=#143642;" vertex="1" parent="1">
          <mxGeometry x="254.5" y="1250" width="70" height="30" as="geometry" />
        </mxCell>
        <mxCell id="ozpXTlb8TzuB-5DNZtOr-97" value="&lt;b&gt;row5&lt;/b&gt;" style="rounded=1;whiteSpace=wrap;html=1;shadow=0;sketch=1;strokeColor=#0F8B8D;fillColor=#FAE5C7;fontColor=#143642;" vertex="1" parent="1">
          <mxGeometry x="324.5" y="1250" width="70" height="30" as="geometry" />
        </mxCell>
        <mxCell id="ozpXTlb8TzuB-5DNZtOr-98" value="" style="edgeStyle=orthogonalEdgeStyle;curved=1;rounded=1;sketch=0;orthogonalLoop=1;jettySize=auto;html=1;strokeColor=#A8201A;fillColor=#FAE5C7;fontColor=#143642;" edge="1" parent="1" source="ozpXTlb8TzuB-5DNZtOr-99" target="ozpXTlb8TzuB-5DNZtOr-100">
          <mxGeometry relative="1" as="geometry" />
        </mxCell>
        <mxCell id="ozpXTlb8TzuB-5DNZtOr-99" value="&lt;b&gt;8&lt;/b&gt;" style="rounded=1;whiteSpace=wrap;html=1;shadow=0;sketch=1;strokeColor=#0F8B8D;fillColor=#FAE5C7;fontColor=#143642;" vertex="1" parent="1">
          <mxGeometry x="581" y="1190" width="69" height="30" as="geometry" />
        </mxCell>
        <mxCell id="ozpXTlb8TzuB-5DNZtOr-100" value="&lt;b&gt;row6&lt;/b&gt;" style="rounded=1;whiteSpace=wrap;html=1;shadow=0;sketch=1;strokeColor=#0F8B8D;fillColor=#FAE5C7;fontColor=#143642;" vertex="1" parent="1">
          <mxGeometry x="581" y="1260" width="70" height="30" as="geometry" />
        </mxCell>
        <mxCell id="ozpXTlb8TzuB-5DNZtOr-101" style="edgeStyle=orthogonalEdgeStyle;curved=1;rounded=1;sketch=0;orthogonalLoop=1;jettySize=auto;html=1;strokeColor=#A8201A;fillColor=#FAE5C7;fontColor=#143642;" edge="1" parent="1" source="ozpXTlb8TzuB-5DNZtOr-102" target="ozpXTlb8TzuB-5DNZtOr-103">
          <mxGeometry relative="1" as="geometry" />
        </mxCell>
        <mxCell id="ozpXTlb8TzuB-5DNZtOr-102" value="&lt;b&gt;9&lt;/b&gt;" style="rounded=1;whiteSpace=wrap;html=1;shadow=0;sketch=1;strokeColor=#0F8B8D;fillColor=#FAE5C7;fontColor=#143642;" vertex="1" parent="1">
          <mxGeometry x="657" y="1190" width="69" height="30" as="geometry" />
        </mxCell>
        <mxCell id="ozpXTlb8TzuB-5DNZtOr-103" value="&lt;b&gt;row7&lt;/b&gt;" style="rounded=1;whiteSpace=wrap;html=1;shadow=0;sketch=1;strokeColor=#0F8B8D;fillColor=#FAE5C7;fontColor=#143642;" vertex="1" parent="1">
          <mxGeometry x="657" y="1260" width="69" height="30" as="geometry" />
        </mxCell>
        <mxCell id="ozpXTlb8TzuB-5DNZtOr-104" value="&lt;font style=&quot;font-size: 14px&quot;&gt;&lt;b&gt;page1&lt;/b&gt;&lt;/font&gt;" style="text;html=1;strokeColor=none;fillColor=none;align=center;verticalAlign=middle;whiteSpace=wrap;rounded=0;shadow=0;glass=0;sketch=1;fontColor=#143642;" vertex="1" parent="1">
          <mxGeometry x="124" y="1290" width="40" height="20" as="geometry" />
        </mxCell>
        <mxCell id="ozpXTlb8TzuB-5DNZtOr-105" value="&lt;b&gt;&lt;font style=&quot;font-size: 14px&quot;&gt;page2&lt;/font&gt;&lt;/b&gt;" style="text;html=1;strokeColor=none;fillColor=none;align=center;verticalAlign=middle;whiteSpace=wrap;rounded=0;shadow=0;glass=0;sketch=1;fontColor=#143642;" vertex="1" parent="1">
          <mxGeometry x="337" y="1290" width="40" height="20" as="geometry" />
        </mxCell>
        <mxCell id="ozpXTlb8TzuB-5DNZtOr-115" value="&lt;b&gt;7&lt;/b&gt;" style="rounded=1;whiteSpace=wrap;html=1;shadow=0;sketch=1;strokeColor=#0F8B8D;fillColor=#FAE5C7;fontColor=#143642;" vertex="1" parent="1">
          <mxGeometry x="398" y="1190" width="69" height="30" as="geometry" />
        </mxCell>
        <mxCell id="ozpXTlb8TzuB-5DNZtOr-116" value="&lt;b&gt;row8&lt;/b&gt;" style="rounded=1;whiteSpace=wrap;html=1;shadow=0;sketch=1;strokeColor=#0F8B8D;fillColor=#FAE5C7;fontColor=#143642;" vertex="1" parent="1">
          <mxGeometry x="397" y="1250" width="69" height="30" as="geometry" />
        </mxCell>
        <mxCell id="ozpXTlb8TzuB-5DNZtOr-117" value="&lt;b&gt;&lt;font style=&quot;font-size: 14px&quot;&gt;page3&lt;/font&gt;&lt;/b&gt;" style="text;html=1;strokeColor=none;fillColor=none;align=center;verticalAlign=middle;whiteSpace=wrap;rounded=0;shadow=0;glass=0;sketch=1;fontColor=#143642;" vertex="1" parent="1">
          <mxGeometry x="651" y="1300" width="40" height="20" as="geometry" />
        </mxCell>
      </root>
    </mxGraphModel>
  </diagram>
</mxfile>
